<svg xmlns="http://www.w3.org/2000/svg" viewBox="0 0 256 256" role="img" aria-labelledby="title desc"><title id="title">Shadecode Student mark</title><desc id="desc">A clean geometric Shadecode S mark.</desc><path d="M190 64H101c-29 0-45 14-45 36 0 20 15 31 43 37l58 12c29 6 43 19 43 41 0 26-21 42-55 42H66" fill="none" stroke="#2563EB" stroke-width="34" stroke-linecap="round" stroke-linejoin="round"/><path d="M190 64H101c-29 0-45 14-45 36 0 20 15 31 43 37l58 12c29 6 43 19 43 41 0 26-21 42-55 42H66" fill="none" stroke="#38BDF8" stroke-width="10" stroke-linecap="round" stroke-linejoin="round"/></svg>